<?xml version="1.0" encoding="utf-8"?>
<svg version="1.1" id="layer" x="0px" y="0px" viewBox="-153 -46 652 652" style="enable-background:new -153 -46 652 652;" xmlns="http://www.w3.org/2000/svg">
  <path d="M 326.423 348.586 L -8.703 348.586 L 158.859 58.343 L 326.423 348.586 Z" style=""/>
  <path d="M 71.449 421.5 C 48.049 421.5 31.149 436.8 31.149 459.7 C 31.149 482.6 50.149 497.9 73.549 497.9 C 87.749 497.9 100.149 492.3 107.949 482.9 L 91.749 473.5 C 87.449 478.2 80.949 480.9 73.649 480.9 C 63.449 480.9 54.849 475.6 51.649 467.1 L 111.149 467.1 C 111.649 464.7 111.849 462.3 111.849 459.7 C 111.749 436.7 94.949 421.5 71.449 421.5 Z"/>
  <path d="M 171.649 423.6 L 171.649 444.2 C 169.549 443.6 167.249 443.2 164.849 443.2 C 152.549 443.2 143.649 451.7 143.649 464.4 L 143.649 495.8 L 124.549 495.8 L 124.549 423.6 L 143.649 423.6 L 143.649 443.1 C 143.649 432.3 156.149 423.6 171.649 423.6 Z"/>
  <path d="M 46.649 398.1 L -12.151 500 L -70.951 398.1 L -48.851 398.1 L -12.051 461.8 L 24.749 398.1 L 46.649 398.1 Z"/>
  <path d="M 372.149 398.1 L 372.149 495.7 L 353.049 495.7 L 353.049 398.1 L 372.149 398.1 Z"/>
  <path d="M 197.149 459.7 C 197.149 472.4 205.449 480.9 218.349 480.9 C 227.049 480.9 233.649 476.9 237.049 470.5 L 253.349 479.9 C 246.649 491.1 233.949 497.9 218.349 497.9 C 194.849 497.9 178.049 482.6 178.049 459.7 C 178.049 436.8 194.949 421.5 218.349 421.5 C 233.949 421.5 246.549 428.3 253.349 439.5 L 237.049 448.9 C 233.649 442.4 227.149 438.5 218.349 438.5 C 205.449 438.4 197.149 446.9 197.149 459.7 Z"/>
  <path d="M 279.949 452.2 C 282.649 443.7 289.849 438.4 300.049 438.4 C 310.249 438.4 317.449 443.7 320.149 452.2 L 279.949 452.2 Z"/>
  <path d="M 299.949 421.5 C 276.549 421.5 259.649 436.8 259.649 459.7 C 259.649 482.6 278.649 497.9 302.049 497.9 C 316.249 497.9 328.649 492.3 336.449 482.9 L 320.249 473.5 C 315.949 478.2 309.449 480.9 302.149 480.9 C 291.949 480.9 283.349 475.6 280.149 467.1 L 339.649 467.1 C 340.149 464.7 340.349 462.3 340.349 459.7 C 340.349 436.7 323.449 421.5 299.949 421.5 Z"/>
  <path d="M 51.349 452.2 C 54.049 443.7 61.249 438.4 71.449 438.4 C 81.649 438.4 88.849 443.7 91.549 452.2 L 51.349 452.2 Z" style="fill: rgb(255, 255, 255);"/>
  <path d="M 281.517 452.914 C 284.217 444.414 291.417 439.114 301.617 439.114 C 311.817 439.114 319.017 444.414 321.717 452.914 L 281.517 452.914 Z" style="fill: rgb(255, 255, 255);"/>
</svg>